<svg width="166" height="51" viewBox="0 0 166 51" fill="none" xmlns="http://www.w3.org/2000/svg">
<path d="M2.66912 5.98198C-1.95736 16.3026 11.4179 20.9587 18.6839 21.9967C0.444841 21.9967 0 45.1292 0 47.7983C0 50.4674 6.01142 55.2981 12.4559 42.9049C18.239 31.7835 48.4891 30.449 47.1545 24.6659C45.82 18.8828 32.4744 17.9931 26.6912 12.6548C20.9081 7.31655 55.6068 15.7688 47.1545 9.98567C38.7023 4.20256 8.45222 -6.91879 2.66912 5.98198Z" fill="url(#paint0_linear_511_630)"/>
<path d="M65.6283 37.0612V18.12H59.7793V14.4833H75.5383V18.12H69.7802V37.0612H65.6283ZM83.6506 37.4248C82.0343 37.4248 80.5594 37.0511 79.2259 36.3035C77.9127 35.556 76.8621 34.5357 76.0741 33.2426C75.3064 31.9496 74.9225 30.4747 74.9225 28.818C74.9225 27.1612 75.3064 25.6864 76.0741 24.3933C76.8621 23.1003 77.9127 22.08 79.2259 21.3324C80.5392 20.5849 82.0141 20.2111 83.6506 20.2111C85.2669 20.2111 86.7317 20.5849 88.0449 21.3324C89.3582 22.08 90.3987 23.1003 91.1664 24.3933C91.9544 25.6662 92.3484 27.141 92.3484 28.818C92.3484 30.4747 91.9544 31.9496 91.1664 33.2426C90.3785 34.5357 89.3279 35.556 88.0146 36.3035C86.7014 37.0511 85.2467 37.4248 83.6506 37.4248ZM83.6506 33.7881C84.5395 33.7881 85.3174 33.576 85.9841 33.1517C86.6711 32.7274 87.2065 32.1415 87.5903 31.394C87.9944 30.6262 88.1965 29.7675 88.1965 28.818C88.1965 27.8482 87.9944 26.9996 87.5903 26.2723C87.2065 25.5247 86.6711 24.9388 85.9841 24.5145C85.3174 24.07 84.5395 23.8478 83.6506 23.8478C82.7414 23.8478 81.9433 24.07 81.2564 24.5145C80.5695 24.9388 80.024 25.5247 79.6199 26.2723C79.236 26.9996 79.0441 27.8482 79.0441 28.818C79.0441 29.7675 79.236 30.6262 79.6199 31.394C80.024 32.1415 80.5695 32.7274 81.2564 33.1517C81.9433 33.576 82.7414 33.7881 83.6506 33.7881ZM103.026 37.4248C101.43 37.4248 100.006 37.0511 98.7533 36.3035C97.5007 35.5358 96.5107 34.4953 95.7833 33.182C95.056 31.8688 94.6923 30.4141 94.6923 28.818C94.6923 27.2017 95.056 25.747 95.7833 24.4539C96.5107 23.1609 97.5007 22.1305 98.7533 21.3627C100.026 20.595 101.44 20.2111 102.996 20.2111C104.249 20.2111 105.36 20.4637 106.33 20.9687C107.32 21.4536 108.098 22.1406 108.663 23.0295L108.057 23.8478V14.1196H112.027V37.0612H108.269V33.879L108.694 34.667C108.128 35.556 107.34 36.2429 106.33 36.7278C105.32 37.1925 104.218 37.4248 103.026 37.4248ZM103.451 33.7881C104.36 33.7881 105.158 33.576 105.845 33.1517C106.532 32.7274 107.067 32.1415 107.451 31.394C107.855 30.6464 108.057 29.7878 108.057 28.818C108.057 27.8684 107.855 27.0198 107.451 26.2723C107.067 25.5045 106.532 24.9085 105.845 24.4842C105.158 24.0599 104.36 23.8478 103.451 23.8478C102.562 23.8478 101.764 24.07 101.057 24.5145C100.349 24.9388 99.7938 25.5247 99.3897 26.2723C99.0059 26.9996 98.8139 27.8482 98.8139 28.818C98.8139 29.7878 99.0059 30.6464 99.3897 31.394C99.7938 32.1415 100.349 32.7274 101.057 33.1517C101.764 33.576 102.562 33.7881 103.451 33.7881ZM123.782 37.4248C122.166 37.4248 120.691 37.0511 119.357 36.3035C118.044 35.556 116.994 34.5357 116.206 33.2426C115.438 31.9496 115.054 30.4747 115.054 28.818C115.054 27.1612 115.438 25.6864 116.206 24.3933C116.994 23.1003 118.044 22.08 119.357 21.3324C120.671 20.5849 122.146 20.2111 123.782 20.2111C125.398 20.2111 126.863 20.5849 128.177 21.3324C129.49 22.08 130.53 23.1003 131.298 24.3933C132.086 25.6662 132.48 27.141 132.48 28.818C132.48 30.4747 132.086 31.9496 131.298 33.2426C130.51 34.5357 129.459 35.556 128.146 36.3035C126.833 37.0511 125.378 37.4248 123.782 37.4248ZM123.782 33.7881C124.671 33.7881 125.449 33.576 126.116 33.1517C126.803 32.7274 127.338 32.1415 127.722 31.394C128.126 30.6262 128.328 29.7675 128.328 28.818C128.328 27.8482 128.126 26.9996 127.722 26.2723C127.338 25.5247 126.803 24.9388 126.116 24.5145C125.449 24.07 124.671 23.8478 123.782 23.8478C122.873 23.8478 122.075 24.07 121.388 24.5145C120.701 24.9388 120.156 25.5247 119.751 26.2723C119.368 26.9996 119.176 27.8482 119.176 28.818C119.176 29.7675 119.368 30.6262 119.751 31.394C120.156 32.1415 120.701 32.7274 121.388 33.1517C122.075 33.576 122.873 33.7881 123.782 33.7881ZM135.491 37.0612V20.5748H139.218V24.2418L138.915 23.6963C139.299 22.4638 139.895 21.6052 140.703 21.1203C141.532 20.6354 142.522 20.3929 143.673 20.3929H144.643V23.9084H143.219C142.087 23.9084 141.178 24.262 140.491 24.9691C139.804 25.6561 139.461 26.6258 139.461 27.8785V37.0612H135.491ZM154.887 37.4248C153.271 37.4248 151.796 37.0511 150.462 36.3035C149.149 35.556 148.099 34.5357 147.311 33.2426C146.543 31.9496 146.159 30.4747 146.159 28.818C146.159 27.1612 146.543 25.6864 147.311 24.3933C148.099 23.1003 149.149 22.08 150.462 21.3324C151.776 20.5849 153.251 20.2111 154.887 20.2111C156.503 20.2111 157.968 20.5849 159.281 21.3324C160.595 22.08 161.635 23.1003 162.403 24.3933C163.191 25.6662 163.585 27.141 163.585 28.818C163.585 30.4747 163.191 31.9496 162.403 33.2426C161.615 34.5357 160.564 35.556 159.251 36.3035C157.938 37.0511 156.483 37.4248 154.887 37.4248ZM154.887 33.7881C155.776 33.7881 156.554 33.576 157.221 33.1517C157.908 32.7274 158.443 32.1415 158.827 31.394C159.231 30.6262 159.433 29.7675 159.433 28.818C159.433 27.8482 159.231 26.9996 158.827 26.2723C158.443 25.5247 157.908 24.9388 157.221 24.5145C156.554 24.07 155.776 23.8478 154.887 23.8478C153.978 23.8478 153.18 24.07 152.493 24.5145C151.806 24.9388 151.26 25.5247 150.856 26.2723C150.473 26.9996 150.281 27.8482 150.281 28.818C150.281 29.7675 150.473 30.6262 150.856 31.394C151.26 32.1415 151.806 32.7274 152.493 33.1517C153.18 33.576 153.978 33.7881 154.887 33.7881Z" fill="#675BAD"/>
<defs>
<linearGradient id="paint0_linear_511_630" x1="24.2444" y1="0" x2="24.2444" y2="51" gradientUnits="userSpaceOnUse">
<stop stop-color="#7766C6"/>
<stop offset="1" stop-color="#46467A"/>
</linearGradient>
</defs>
</svg>
